<svg version="1.1" viewBox="16.8 14.2 64.4 65.4" xmlns:xlink="http://www.w3.org/1999/xlink" xmlns="http://www.w3.org/2000/svg" style="max-height: 500px" width="64.4" height="65.4">
<g id="surface1">
<path d="M 47.851562 15.867188 C 46.398438 16.132812 45.039062 16.757812 43.3125 17.960938 C 42.65625 18.40625 39.992188 20.476562 39.015625 21.289062 C 38.585938 21.648438 37.976562 22.128906 37.664062 22.351562 C 37.351562 22.578125 36.699219 23.105469 36.210938 23.515625 C 34.929688 24.601562 32.109375 26.875 31.25 27.519531 C 30.097656 28.390625 26.113281 31.570312 25.148438 32.402344 C 23.914062 33.457031 22.910156 34.265625 21.335938 35.449219 C 20.59375 36.015625 19.746094 36.699219 19.460938 36.984375 C 18.976562 37.460938 18.945312 37.507812 18.945312 37.988281 C 18.945312 38.417969 18.984375 38.535156 19.238281 38.78125 C 19.484375 39.03125 19.589844 39.070312 19.941406 39.042969 C 20.3125 39.015625 20.390625 38.964844 20.761719 38.476562 C 20.984375 38.171875 21.582031 37.597656 22.078125 37.1875 C 25.019531 34.785156 25.800781 34.160156 26.648438 33.507812 C 27.167969 33.117188 28 32.453125 28.507812 32.039062 C 29.003906 31.632812 29.960938 30.878906 30.625 30.359375 C 32.128906 29.199219 35.039062 26.816406 36.453125 25.585938 C 37.792969 24.433594 38.992188 23.417969 39.941406 22.625 C 40.34375 22.296875 41.007812 21.738281 41.414062 21.386719 C 41.828125 21.035156 42.46875 20.527344 42.859375 20.265625 C 43.25 19.992188 44.054688 19.40625 44.648438 18.964844 C 45.984375 17.949219 46.464844 17.703125 47.585938 17.46875 C 48.613281 17.257812 49.34375 17.296875 50.195312 17.597656 C 50.957031 17.882812 53.027344 19.132812 54.003906 19.902344 C 54.460938 20.265625 55.164062 20.773438 55.566406 21.046875 C 56.699219 21.796875 59.628906 24.160156 65.46875 29.015625 C 67.1875 30.4375 70.59375 33.15625 72.753906 34.8125 C 73.585938 35.449219 74.550781 36.21875 74.902344 36.523438 C 75.253906 36.828125 75.820312 37.285156 76.152344 37.539062 C 76.492188 37.804688 76.933594 38.234375 77.128906 38.496094 C 77.53125 39.0625 77.78125 39.1875 78.261719 39.054688 C 78.945312 38.867188 79.21875 38.085938 78.820312 37.429688 C 78.613281 37.109375 76.75 35.476562 75.4375 34.492188 C 75.007812 34.171875 74.289062 33.59375 73.828125 33.210938 C 73.367188 32.832031 72.578125 32.207031 72.070312 31.828125 C 69.734375 30.046875 66.542969 27.441406 65.125 26.152344 C 64.296875 25.390625 63.445312 24.707031 62.597656 24.101562 C 62.351562 23.9375 61.828125 23.484375 61.425781 23.117188 C 61.023438 22.742188 60.214844 22.117188 59.617188 21.726562 C 58.25 20.8125 56.359375 19.5 54.25 17.988281 C 51.414062 15.957031 49.980469 15.488281 47.851562 15.867188 Z M 47.851562 15.867188" style="stroke:none;fill-rule:nonzero;fill:rgb(0%,0%,0%);fill-opacity:1;"/>
<path d="M 44.1875 21.894531 C 43.351562 22.195312 42.382812 23.117188 42.101562 23.867188 C 41.308594 25.996094 41.875 28.601562 43.417969 29.960938 C 44.421875 30.859375 45.515625 31.054688 46.601562 30.527344 C 47.246094 30.226562 48.105469 29.34375 48.4375 28.664062 C 48.9375 27.636719 48.914062 25.476562 48.398438 24.367188 C 47.871094 23.222656 46.875 22.335938 45.710938 21.972656 C 45.039062 21.757812 44.628906 21.738281 44.1875 21.894531 Z M 45.683594 24.0625 C 46.914062 24.707031 47.304688 27.363281 46.328125 28.496094 C 45.734375 29.199219 45.007812 29.109375 44.433594 28.273438 C 43.914062 27.519531 43.71875 26.835938 43.769531 25.929688 C 43.859375 24.375 44.695312 23.554688 45.683594 24.0625 Z M 45.683594 24.0625" style="stroke:none;fill-rule:nonzero;fill:rgb(0%,0%,0%);fill-opacity:1;"/>
<path d="M 52.101562 22.109375 C 51.632812 22.257812 51.289062 22.460938 50.664062 22.976562 C 50.3125 23.261719 50.085938 23.574219 49.785156 24.199219 L 49.367188 25.03125 L 49.335938 26.4375 C 49.304688 27.558594 49.335938 27.949219 49.460938 28.339844 C 49.726562 29.148438 50.226562 29.835938 50.839844 30.242188 C 51.375 30.605469 51.425781 30.617188 52.234375 30.617188 C 52.960938 30.617188 53.164062 30.578125 53.691406 30.332031 C 54.824219 29.804688 55.96875 28.183594 56.269531 26.6875 C 56.4375 25.839844 56.28125 24.65625 55.898438 23.886719 C 55.566406 23.195312 54.8125 22.414062 54.257812 22.15625 C 53.789062 21.945312 52.703125 21.921875 52.101562 22.109375 Z M 53.613281 24.179688 C 53.78125 24.328125 53.976562 24.5625 54.054688 24.71875 C 54.40625 25.390625 54.316406 26.921875 53.886719 27.804688 C 53.601562 28.367188 52.882812 28.90625 52.402344 28.90625 C 51.523438 28.90625 50.96875 27.21875 51.308594 25.59375 C 51.476562 24.796875 51.53125 24.707031 52.148438 24.257812 C 52.714844 23.835938 53.171875 23.820312 53.613281 24.179688 Z M 53.613281 24.179688" style="stroke:none;fill-rule:nonzero;fill:rgb(0%,0%,0%);fill-opacity:1;"/>
<path d="M 38.09375 27.546875 C 37.324219 27.695312 36.570312 28.351562 36.171875 29.21875 C 35.90625 29.796875 35.890625 29.902344 35.890625 31.113281 C 35.890625 32.390625 35.890625 32.390625 36.257812 33.125 C 36.738281 34.109375 37.363281 34.757812 38.28125 35.203125 C 40.007812 36.074219 41.570312 35.554688 42.53125 33.789062 C 42.773438 33.320312 42.820312 33.125 42.851562 32.304688 C 42.898438 31.164062 42.765625 30.644531 42.140625 29.640625 C 41.425781 28.496094 40.644531 27.859375 39.601562 27.585938 C 38.964844 27.429688 38.742188 27.421875 38.09375 27.546875 Z M 39.382812 29.484375 C 40.242188 29.8125 41.015625 31.171875 41.015625 32.363281 C 41.015625 32.949219 40.664062 33.585938 40.253906 33.757812 C 39.746094 33.976562 39.316406 33.847656 38.769531 33.339844 C 38.117188 32.734375 37.859375 32.101562 37.851562 31.085938 C 37.84375 30.175781 37.988281 29.863281 38.585938 29.570312 C 38.964844 29.367188 39.054688 29.355469 39.382812 29.484375 Z M 39.382812 29.484375" style="stroke:none;fill-rule:nonzero;fill:rgb(0%,0%,0%);fill-opacity:1;"/>
<path d="M 58.234375 27.6875 C 57.53125 27.898438 56.984375 28.289062 56.257812 29.070312 C 55.292969 30.136719 55.125 30.566406 55.125 32.078125 C 55.125 33.445312 55.273438 33.859375 55.976562 34.628906 C 57.234375 35.996094 59.265625 35.8125 60.8125 34.179688 C 62.050781 32.859375 62.402344 31.242188 61.816406 29.523438 C 61.28125 27.96875 59.785156 27.195312 58.234375 27.6875 Z M 59.628906 29.707031 C 60.304688 30.320312 60.097656 32.128906 59.25 33.066406 C 58.601562 33.757812 57.726562 33.859375 57.285156 33.261719 C 57.109375 33.039062 57.078125 32.851562 57.078125 32.050781 C 57.078125 31.164062 57.101562 31.074219 57.375 30.632812 C 57.675781 30.15625 58.320312 29.628906 58.769531 29.492188 C 59.101562 29.394531 59.367188 29.460938 59.628906 29.707031 Z M 59.628906 29.707031" style="stroke:none;fill-rule:nonzero;fill:rgb(0%,0%,0%);fill-opacity:1;"/>
<path d="M 48.046875 31.71875 C 46.660156 32.179688 45.742188 32.882812 44.21875 34.648438 C 43.730469 35.226562 42.832031 36.171875 42.226562 36.765625 C 40.898438 38.054688 40.527344 38.710938 40.449219 39.902344 C 40.332031 41.765625 41.132812 43.25 42.65625 43.976562 C 43.261719 44.257812 43.390625 44.289062 44.289062 44.289062 C 45.242188 44.277344 45.28125 44.265625 46.484375 43.757812 C 48.535156 42.882812 49.382812 42.859375 51.0625 43.640625 C 52.363281 44.25 52.859375 44.375 53.691406 44.304688 C 55.046875 44.210938 56.164062 43.523438 56.855469 42.382812 C 57.363281 41.542969 57.46875 41.132812 57.46875 40.085938 C 57.46875 38.859375 57.179688 38.289062 55.800781 36.804688 C 55.234375 36.191406 54.492188 35.359375 54.171875 34.960938 C 52.871094 33.378906 51.777344 32.492188 50.46875 31.960938 C 49.460938 31.542969 48.78125 31.476562 48.046875 31.71875 Z M 49.960938 33.640625 C 50.460938 33.847656 50.789062 34.148438 51.953125 35.449219 C 52.519531 36.085938 53.476562 37.140625 54.09375 37.804688 C 54.707031 38.476562 55.292969 39.210938 55.398438 39.445312 C 55.75 40.242188 55.460938 41.453125 54.785156 42.03125 C 54.382812 42.363281 54.132812 42.421875 53.3125 42.363281 C 52.765625 42.324219 52.460938 42.226562 51.804688 41.894531 C 50.742188 41.375 50.136719 41.210938 49.1875 41.210938 C 48.09375 41.210938 47.0625 41.453125 46.046875 41.945312 C 45.566406 42.167969 45.058594 42.390625 44.929688 42.429688 C 44.511719 42.558594 43.835938 42.492188 43.417969 42.296875 C 42.507812 41.84375 42.101562 40.382812 42.609375 39.335938 C 42.859375 38.796875 46.28125 34.929688 47.011719 34.355469 C 47.519531 33.945312 47.9375 33.710938 48.339844 33.585938 C 48.757812 33.457031 49.601562 33.484375 49.960938 33.640625 Z M 49.960938 33.640625" style="stroke:none;fill-rule:nonzero;fill:rgb(0%,0%,0%);fill-opacity:1;"/>
<path d="M 26.699219 36.757812 L 26.359375 37.101562 L 26.414062 63.328125 L 26.699219 64.0625 C 27.570312 66.347656 28.574219 67.609375 30.351562 68.640625 C 30.710938 68.847656 31.296875 69.132812 31.640625 69.257812 C 32.273438 69.484375 32.296875 69.484375 36.933594 69.484375 C 41.484375 69.484375 41.59375 69.484375 41.855469 69.277344 C 42 69.171875 42.207031 68.964844 42.3125 68.835938 C 42.480469 68.601562 42.492188 68.273438 42.519531 61.757812 C 42.539062 54.179688 42.519531 54.394531 43.203125 53.046875 C 43.925781 51.609375 45.046875 50.539062 46.671875 49.726562 C 47.546875 49.289062 47.617188 49.265625 48.574219 49.238281 C 50.390625 49.171875 51.648438 49.6875 53.046875 51.074219 C 53.75 51.789062 53.953125 52.070312 54.328125 52.84375 C 55.136719 54.53125 55.109375 54.199219 55.164062 61.621094 C 55.226562 68.039062 55.234375 68.222656 55.421875 68.554688 C 55.539062 68.742188 55.800781 69.023438 56.023438 69.179688 L 56.425781 69.453125 L 60.8125 69.472656 C 65.1875 69.484375 65.1875 69.484375 65.867188 69.25 C 66.882812 68.898438 67.570312 68.535156 68.367188 67.890625 C 69.707031 66.828125 70.410156 65.929688 71.023438 64.5 C 71.398438 63.664062 71.414062 63.554688 71.492188 62.15625 C 71.621094 60.007812 71.59375 37.507812 71.464844 37.257812 C 71.335938 37.011719 71.023438 36.738281 70.722656 36.621094 C 70.554688 36.542969 70.398438 36.570312 70.117188 36.71875 C 69.34375 37.117188 69.40625 35.929688 69.421875 49.835938 C 69.445312 58.59375 69.414062 62.460938 69.335938 62.9375 C 69.179688 63.886719 68.601562 65.058594 67.976562 65.695312 C 67.414062 66.257812 66.296875 66.992188 65.625 67.246094 C 65.273438 67.375 64.589844 67.421875 62.15625 67.492188 C 58.976562 67.570312 57.480469 67.53125 57.335938 67.34375 C 57.273438 67.273438 57.226562 64.734375 57.195312 61.132812 C 57.15625 54.445312 57.15625 54.445312 56.53125 52.832031 C 55.9375 51.289062 54.746094 49.679688 53.523438 48.789062 C 52.851562 48.289062 51.789062 47.792969 50.917969 47.546875 C 49.921875 47.273438 48.15625 47.257812 47.070312 47.507812 C 46.25 47.695312 45.148438 48.171875 44.511719 48.613281 C 42.851562 49.757812 41.269531 52.195312 40.695312 54.492188 C 40.5 55.28125 40.488281 55.578125 40.460938 61.328125 C 40.449219 64.628906 40.4375 67.390625 40.4375 67.453125 C 40.429688 67.617188 33.71875 67.625 32.851562 67.46875 C 31.125 67.15625 29.570312 65.625 28.789062 63.457031 L 28.5625 62.84375 L 28.515625 49.992188 C 28.46875 37.304688 28.46875 37.128906 28.273438 36.914062 C 27.753906 36.335938 27.179688 36.28125 26.699219 36.757812 Z M 26.699219 36.757812" style="stroke:none;fill-rule:nonzero;fill:rgb(0%,0%,0%);fill-opacity:1;"/>
<path d="M 69.121094 73.847656 C 68.703125 74.09375 68.515625 74.40625 68.523438 74.851562 C 68.546875 75.460938 69.09375 76.074219 69.628906 76.074219 C 70.234375 76.074219 70.800781 75.476562 70.800781 74.824219 C 70.800781 74.453125 70.75 74.335938 70.421875 74.015625 C 69.980469 73.574219 69.667969 73.523438 69.121094 73.847656 Z M 69.121094 73.847656" style="stroke:none;fill-rule:nonzero;fill:rgb(0%,0%,0%);fill-opacity:1;"/>
<path d="M 36.152344 74.316406 C 35.382812 74.796875 35.359375 76.015625 36.132812 76.414062 C 36.648438 76.679688 37.089844 76.609375 37.507812 76.179688 C 37.820312 75.867188 37.890625 75.734375 37.890625 75.429688 C 37.890625 74.960938 37.609375 74.472656 37.21875 74.265625 C 36.828125 74.070312 36.542969 74.082031 36.152344 74.316406 Z M 36.152344 74.316406" style="stroke:none;fill-rule:nonzero;fill:rgb(0%,0%,0%);fill-opacity:1;"/>
<path d="M 55.3125 74.304688 C 54.453125 74.824219 54.367188 75.546875 55.058594 76.289062 C 55.390625 76.640625 55.761719 76.71875 56.210938 76.503906 C 57.167969 76.046875 57.179688 74.734375 56.210938 74.277344 C 55.789062 74.082031 55.683594 74.082031 55.3125 74.304688 Z M 55.3125 74.304688" style="stroke:none;fill-rule:nonzero;fill:rgb(0%,0%,0%);fill-opacity:1;"/>
<path d="M 59.5625 74.5 C 59.21875 74.835938 59.179688 74.929688 59.179688 75.351562 C 59.179688 76.140625 59.628906 76.648438 60.320312 76.660156 C 60.671875 76.660156 60.773438 76.609375 61.074219 76.25 C 61.359375 75.929688 61.425781 75.761719 61.425781 75.449219 C 61.425781 74.960938 61.140625 74.472656 60.75 74.265625 C 60.273438 74.023438 59.980469 74.082031 59.5625 74.5 Z M 59.5625 74.5" style="stroke:none;fill-rule:nonzero;fill:rgb(0%,0%,0%);fill-opacity:1;"/>
<path d="M 64.53125 74.40625 C 64.238281 74.667969 64.210938 74.746094 64.210938 75.234375 C 64.210938 75.695312 64.25 75.820312 64.484375 76.046875 C 64.707031 76.269531 64.835938 76.320312 65.242188 76.320312 C 65.695312 76.320312 65.773438 76.28125 66.074219 75.957031 C 66.542969 75.4375 66.542969 74.921875 66.074219 74.453125 C 65.789062 74.171875 65.671875 74.121094 65.292969 74.121094 C 64.941406 74.121094 64.785156 74.179688 64.53125 74.40625 Z M 64.53125 74.40625" style="stroke:none;fill-rule:nonzero;fill:rgb(0%,0%,0%);fill-opacity:1;"/>
<path d="M 27.351562 74.5 C 26.972656 74.851562 26.972656 75.125 27.335938 75.5 C 28 76.152344 28.992188 75.578125 28.703125 74.707031 C 28.496094 74.140625 27.851562 74.042969 27.351562 74.5 Z M 27.351562 74.5" style="stroke:none;fill-rule:nonzero;fill:rgb(0%,0%,0%);fill-opacity:1;"/>
<path d="M 40.566406 74.667969 C 40.292969 74.953125 40.234375 75.085938 40.234375 75.4375 C 40.234375 76.21875 41.0625 76.882812 41.75 76.660156 C 42.207031 76.503906 42.675781 75.957031 42.675781 75.554688 C 42.675781 74.902344 42.03125 74.316406 41.320312 74.316406 C 40.957031 74.316406 40.839844 74.367188 40.566406 74.667969 Z M 40.566406 74.667969" style="stroke:none;fill-rule:nonzero;fill:rgb(0%,0%,0%);fill-opacity:1;"/>
<path d="M 31.328125 75.265625 C 30.90625 75.371094 31.210938 75.878906 31.6875 75.878906 C 32.101562 75.878906 32.453125 75.398438 32.089844 75.332031 C 31.984375 75.320312 31.804688 75.28125 31.699219 75.265625 C 31.582031 75.242188 31.425781 75.242188 31.328125 75.265625 Z M 31.328125 75.265625" style="stroke:none;fill-rule:nonzero;fill:rgb(0%,0%,0%);fill-opacity:1;"/>
</g>
</svg>